<svg width="30" height="30" viewBox="0 0 30 30" fill="none" xmlns="http://www.w3.org/2000/svg">
<g clip-path="url(#clip0)">
<path d="M13.6221 22.8706C13.3935 23.099 13.3935 23.47 13.6221 23.6989C13.8513 23.9275 14.222 23.9275 14.4505 23.6989C14.6796 23.47 14.6796 23.099 14.4505 22.8706C14.222 22.6415 13.8513 22.6415 13.6221 22.8706Z" fill="#6D677D"/>
<path d="M28.6484 21.8528L24.1999 18.0701C24.1793 18.0527 24.1575 18.0367 24.1349 18.0223C22.9678 17.2793 21.4693 17.4439 20.4908 18.4221L18.0654 20.8474C17.8974 21.0156 17.6468 21.0652 17.427 20.9746C14.6882 19.8416 12.4383 18.136 10.7398 15.9056C9.44455 14.2047 8.97764 12.8532 8.91607 12.6628C8.90874 12.622 8.89707 12.5815 8.88059 12.5419C8.78972 12.3222 8.83939 12.072 9.00785 11.904L11.4331 9.47811C12.4115 8.49964 12.5759 7.00115 11.8329 5.83408C11.827 5.8247 11.8208 5.81554 11.8144 5.80639L8.60181 1.34205C7.59107 -0.226021 5.38946 -0.462913 4.06812 0.858192L3.58243 1.34388C3.5822 1.34434 3.58175 1.34479 3.58129 1.34502L1.84728 3.07903C-0.220438 5.14698 -0.558725 8.25428 0.869268 12.0656C2.09241 15.3304 4.54099 18.9035 7.76388 22.1263C11.063 25.4254 14.7326 27.9193 18.0967 29.1487C21.4265 30.3652 24.9685 30.5151 27.4754 28.0079L29.1108 26.3728C30.4262 25.0572 30.1966 22.87 28.6484 21.8528ZM23.4739 18.9907L27.9185 22.7702C27.9389 22.7876 27.9606 22.8036 27.9833 22.818C28.9327 23.4225 29.0764 24.75 28.282 25.5442L28.1607 25.6658L20.5799 19.99L21.3194 19.2507C21.8973 18.6725 22.7781 18.5679 23.4739 18.9907ZM7.62288 1.98589C7.62884 1.99528 7.63502 2.00466 7.64142 2.01359L10.8526 6.47632C11.2889 7.17464 11.1879 8.06614 10.6045 8.64956L9.8879 9.36641L4.75911 1.8243L4.89667 1.68674C5.69433 0.889091 7.0207 1.03992 7.62288 1.98589ZM18.4987 28.048C15.2916 26.8761 11.7734 24.4788 8.59243 21.2978C5.48513 18.1907 3.13199 14.766 1.9663 11.6545C1.09128 9.31904 0.504202 6.07921 2.67583 3.90781L3.91569 2.66773L9.04447 10.2098L8.17952 11.0752C7.68743 11.5664 7.5327 12.2934 7.7783 12.9406C7.96323 13.6996 8.81421 15.275 9.67275 16.4359C10.9362 18.1443 13.2293 20.5061 16.9791 22.0574C17.6381 22.33 18.3895 22.1804 18.8939 21.6761L19.7429 20.827L27.3237 26.5028L26.6469 27.1794C24.3189 29.5076 20.931 28.9367 18.4987 28.048Z" fill="#6D677D"/>
<path d="M12.5226 21.4716C11.9037 20.929 10.8332 19.9956 10.2695 19.4156C8.88702 17.9949 7.4366 16.2728 6.57417 15.0286C6.38992 14.7627 6.02486 14.6963 5.75889 14.8808C5.49293 15.065 5.42679 15.4301 5.61104 15.696C6.69868 17.2652 8.29674 19.0684 9.42947 20.2325C10.0246 20.845 11.1042 21.7866 11.7499 22.3526C11.9927 22.5655 12.3628 22.5421 12.5768 22.2984C12.7901 22.0553 12.7659 21.685 12.5226 21.4716Z" fill="#6D677D"/>
</g>
<defs>
<clipPath id="clip0">
<rect width="30" height="30" fill="white"/>
</clipPath>
</defs>
</svg>
